<?xml version="1.0" encoding="utf-8"?>
<!-- Generator: Adobe Illustrator 18.1.0, SVG Export Plug-In . SVG Version: 6.00 Build 0)  -->
<svg version="1.1" id="Layer_1" xmlns="http://www.w3.org/2000/svg" xmlns:xlink="http://www.w3.org/1999/xlink" x="0px" y="0px"
	 viewBox="0 0 261 241" enable-background="new 0 0 261 241" xml:space="preserve">
<path fill="none" stroke="#ED1A37" stroke-width="4" stroke-miterlimit="10" d="M236.4,228.4H24.6c-6.6,0-12-5.4-12-12V22.5
	c0-6.6,5.4-12,12-12h211.8c6.6,0,12,5.4,12,12v193.9C248.4,223,243,228.4,236.4,228.4z"/>
<rect x="25" y="30" fill="none" width="211" height="28"/>
<text transform="matrix(1 0 0 1 25 46.5596)" fill="#939598" font-family="'Helvetica-Light'" font-size="23">Customized Layouts</text>
<rect x="25" y="79" fill="#939598" width="53" height="53"/>
<rect x="25" y="148.9" fill="#939598" width="53" height="53"/>
<rect x="104" y="79" fill="#939598" width="53" height="53"/>
<rect x="104" y="148.9" fill="#939598" width="53" height="53"/>
<rect x="183" y="79" fill="#939598" width="53" height="53"/>
<rect x="183" y="148.9" fill="#939598" width="53" height="53"/>
<circle fill="#ED1A37" stroke="#ED1A37" stroke-width="4" stroke-miterlimit="10" cx="51.5" cy="105.5" r="15"/>
<circle fill="none" stroke="#ED1A37" stroke-width="4" stroke-miterlimit="10" cx="209.5" cy="175.4" r="15"/>
<polygon fill="none" stroke="#ED1A37" stroke-width="4" stroke-miterlimit="10" points="58,190.4 41.8,188.5 35.3,173.5 45,160.4 
	61.2,162.2 67.7,177.2 "/>
<polygon fill="#ED1A37" stroke="#ED1A37" stroke-width="4" stroke-miterlimit="10" points="224.3,114.6 209.7,121.8 196.1,112.8 
	197.1,96.4 211.8,89.2 225.4,98.2 "/>
<polygon fill="none" stroke="#ED1A37" stroke-width="4" stroke-miterlimit="10" points="139.3,118.2 130.6,112.3 122.3,118.6 
	125.3,108.6 116.7,102.7 127.1,102.4 130.1,92.4 133.6,102.2 144,101.9 135.8,108.3 "/>
<polygon fill="#ED1A37" stroke="#ED1A37" stroke-width="4" stroke-miterlimit="10" points="139.3,188 130.6,182.1 122.3,188.5 
	125.3,178.5 116.7,172.6 127.1,172.3 130.1,162.2 133.6,172.1 144,171.8 135.8,178.2 "/>
</svg>
