<?xml version="1.0" encoding="utf-8"?>
<!-- Generator: Adobe Illustrator 18.1.0, SVG Export Plug-In . SVG Version: 6.00 Build 0)  -->
<svg version="1.1" id="Layer_1" xmlns="http://www.w3.org/2000/svg" xmlns:xlink="http://www.w3.org/1999/xlink" x="0px" y="0px"
	 viewBox="0 0 261 241" enable-background="new 0 0 261 241" xml:space="preserve">
<path fill="#ED1A37" stroke="#ED1A37" stroke-width="4" stroke-miterlimit="10" d="M202.5,104.5c-3.3-0.4-3.6,0.1-3.6-3.7
	c0-13.1,0-26.1,0-39.2c0-2.5-0.1-5-0.6-7.5c-4.3-21.4-18.1-36.4-41.1-45.1c-5.6-2.1-11.5-3.1-17.6-3.3c-5,0-9.9,0-14.9,0
	c-2.8,0.5-5.8,0.3-8.6,0.9c-14.4,3.3-26.4,9.7-35.6,19.8C70.7,37,65.7,49,65.8,62.7c0.1,12.8,0,25.6,0,38.3c0,3,0,3-3.4,3.4
	C45.7,106.2,33,118.5,33,133c0,23.9,0,47.9,0,71.8c0,1.5,0.1,2.9,0.3,4.4c1.7,10.4,13.2,22.7,28.2,23.4c47.3,0,94.5,0,141.8,0
	c2.1-0.5,4.4-0.3,6.5-1c13.1-4.1,22-15,22-27.1c0-23.8,0-47.6,0-71.4C231.8,118.6,219.4,106.3,202.5,104.5z M139.8,174.4v23.7
	c0,3.5-3.3,6.4-7.4,6.4s-7.4-2.9-7.4-6.4v-23.7c-5.4-2.3-9.1-7.1-9.1-12.7c0-7.8,7.4-14.2,16.4-14.2c9.1,0,16.4,6.4,16.4,14.2
	C148.8,167.3,145.2,172.1,139.8,174.4z M165.3,105H99.5l0.3-44.8c4.6-26.9,32.6-26.1,32.6-26.1c29.3,0.6,32.9,25.7,32.9,25.7V105z"
	/>
</svg>
