<?xml version="1.0" encoding="utf-8"?>
<!-- Generator: Adobe Illustrator 18.1.0, SVG Export Plug-In . SVG Version: 6.00 Build 0)  -->
<svg version="1.1" id="Layer_1" xmlns="http://www.w3.org/2000/svg" xmlns:xlink="http://www.w3.org/1999/xlink" x="0px" y="0px"
	 viewBox="0 0 261 241" enable-background="new 0 0 261 241" xml:space="preserve">
<path fill="#ED1A37" stroke="#ED1A37" stroke-width="4" stroke-miterlimit="10" d="M178.7,204c0,0-15.5,5.3-42.1,0
	c-13.4,17.2-34.2,28.3-57.7,28.3c-40.3,0-73-32.7-73-73c0-40.3,32.7-73,73-73c40.3,0,73,32.7,73,73c0,7.7-1.2,15.2-3.4,22.2
	C148.4,181.5,154.7,202.7,178.7,204z"/>
<path fill="#939598" stroke="#939597" stroke-miterlimit="10" d="M246.5,49.9c18,36.1,3.3,79.9-32.7,97.9
	c-36.1,18-79.9,3.3-97.9-32.7l0-0.1c-26.5-2.1-39.9-11.2-40.3-11.4c18.1,4,29.2-6.1,33.4-11c-4.2-30.2,10.9-61,39.7-75.4
	C184.7-0.8,228.5,13.8,246.5,49.9z"/>
<rect x="33.6" y="142.2" fill="none" width="69.3" height="41.3"/>
<text transform="matrix(1 0 0 1 33.5833 163.4715)" fill="#FFFFFF" font-family="'MyriadPro-Regular'" font-size="30">hey!</text>
<rect x="122.5" y="67.3" fill="none" width="118.2" height="19"/>
<text transform="matrix(1 0 0 1 122.4999 81.5397)" fill="#FFFFFF" font-family="'MyriadPro-Regular'" font-size="20">How are you?</text>
</svg>
