<?xml version="1.0" encoding="utf-8"?>
<!-- Generator: Adobe Illustrator 18.1.0, SVG Export Plug-In . SVG Version: 6.00 Build 0)  -->
<svg version="1.1" id="Layer_1" xmlns="http://www.w3.org/2000/svg" xmlns:xlink="http://www.w3.org/1999/xlink" x="0px" y="0px"
	 viewBox="0 0 261 241" enable-background="new 0 0 261 241" xml:space="preserve">
<path fill="#EC1F38" d="M182.7,205.1c0.1,0.2,0.2,0.4,0.3,0.6c1.4,4.2,2.8,8.5,4.3,12.7c1,3,2,6,3,9.1c0.3,0.8,0.5,1.6,0.8,2.4
	c0,0.1,0.1,0.2,0,0.3c-0.2,0-0.4-0.2-0.6-0.3c-2.3-1.4-4.5-2.7-6.8-4.1c-4.7-2.8-9.3-5.7-14-8.5c-0.6-0.4-1.3-0.8-1.9-1.1
	c-0.2-0.1-0.3-0.1-0.5,0.1c-0.1,0.1-0.2,0.3-0.2,0.4c-1.2,2.3-2.4,4.6-3.6,6.9c-1.7,3.3-3.4,6.6-5.2,9.9c-1,2-2,3.9-3.1,5.9
	c-0.1,0.2-0.3,0.4-0.2,0.7c-0.1,0-0.2,0-0.3,0c0.1-0.3,0-0.6-0.1-0.9c-0.6-2.5-1.2-5-1.8-7.5c-1.1-4.6-2.2-9.2-3.2-13.8
	c-0.9-3.8-1.8-7.6-2.7-11.4c-0.1-0.4-0.2-0.8-0.2-1.3c0.4,0,0.7,0,1.1,0c11.1,0,22.2,0,33.3,0C181.7,205.3,182.3,205.3,182.7,205.1z
	"/>
<path fill="#EC1F38" d="M200.9,72.8c0.7,0.3,1.4,0.8,2.1,1.2c2.3,1.4,4.7,2.8,7,4.2c0.1,0.1,0.2,0.2,0.4,0.1c0,0.1,0,0.2,0,0.3
	c-0.3,0-0.4,0.2-0.7,0.3c-2.7,1.6-5.5,3.3-8.2,4.9c-0.2,0.1-0.4,0.3-0.7,0.3c0-0.1,0-0.3,0-0.4c0-1-0.1-2.1,0.2-3.1
	c0-0.1,0-0.2,0-0.3c0-1.3,0-2.5,0-3.8c0-0.2,0-0.4-0.1-0.6c-0.1-0.3-0.1-0.6-0.1-0.9C200.9,74.4,200.9,73.6,200.9,72.8z"/>
<path fill="#EC1F38" d="M134.4,2.5c0.3,0.8,0.8,1.5,1.3,2.2c1.1,1.9,2.2,3.7,3.4,5.6c0.1,0.2,0.3,0.4,0.3,0.6
	c-0.3,0-0.6,0.2-0.9,0.1c-0.2-0.1-0.4,0-0.6,0c-2.2,0-4.5,0-6.7,0c-0.2,0-0.4,0-0.6,0c-0.4,0.2-0.7,0-1-0.1c0.2-0.5,0.5-1,0.8-1.4
	c1.2-2.1,2.5-4.2,3.7-6.2c0.1-0.2,0.3-0.4,0.2-0.7C134.3,2.5,134.4,2.5,134.4,2.5z"/>
<path fill="#939598" d="M129.5,10.8c0.3,0.1,0.7,0.2,1,0.1c0.2-0.1,0.4,0,0.6,0c2.2,0,4.5,0,6.7,0c0.2,0,0.4,0,0.6,0
	c0.3,0.2,0.6,0,0.9-0.1c0.9,1.4,1.8,2.9,2.7,4.4c0,0.1,0,0.1,0.1,0.1c0,0.1,0.1,0.1,0.1,0.2c0,0.1,0,0.1,0.1,0.2
	c0.5,0.8,1,1.6,1.5,2.4c0.1,0.2,0.2,0.3,0.4,0.1c1.2-1.1,2.5-2.2,3.7-3.3c0.3-0.3,0.7-0.6,1.1-0.9c0.1,0,0.2,0,0.2,0
	c1.3,0.3,2.6,0.7,3.9,1.1c1.9,0.6,3.9,1.2,5.8,2c0.5,0.2,1,0.5,1.6,0.4c0.2,0.9,0.4,1.8,0.7,2.7c0.3,1.2,0.6,2.4,0.8,3.7
	c0.1,0.4,0.2,0.4,0.5,0.3c1.2-0.5,2.3-1,3.5-1.5c1.2-0.5,2.4-1,3.5-1.5c0.1,0,0.2-0.1,0.3-0.1c0.1,0,0.2,0,0.2-0.1
	c0.1,0,0.1,0,0.2-0.1c0.1,0.3,0.4,0.5,0.7,0.7c0.8,0.5,1.6,1.1,2.4,1.6c0.5,0.4,1,0.7,1.5,1.1c1,0.8,2.1,1.5,3.1,2.4
	c0.1,0.1,0.2,0.1,0.4,0.1c-0.2,2-0.3,4-0.5,5.9c-0.1,0.6-0.1,1.3-0.2,1.9c-0.1,0.8-0.1,0.8,0.7,0.7c1-0.1,2.1-0.2,3.1-0.3
	c0.4,0,0.8,0,1.2,0c0.1,0,0.3,0,0.4-0.1c0.1,0,0.2,0,0.2,0c0.4,0,0.8,0,1.2,0c0.1,0,0.3,0,0.4-0.1c0.3,0,0.6,0,0.8-0.1
	c0.1,0,0.2,0,0.2,0c0.4-0.1,0.7,0.1,1,0.4c0.5,0.6,1,1.2,1.5,1.8c1.3,1.7,2.5,3.5,3.7,5.3c0.1,0.1,0.2,0.3,0.2,0.4
	c0,0.1,0,0.1,0,0.1c-0.1,0-0.1,0.1-0.1,0.2c-0.4,1-0.8,2-1.2,3c-0.5,1.3-1.1,2.6-1.7,3.9c-0.1,0.2-0.2,0.4-0.2,0.7
	c0.1,0.2,0.4,0.2,0.6,0.2c2.2,0.5,4.4,1,6.6,1.5c0.2,0,0.4,0.1,0.5,0.2c0.1,0.3,0.2,0.6,0.3,0.8c0.5,1.2,1,2.4,1.4,3.7
	c0.5,1.5,0.9,3,1.3,4.4c0.1,0.4,0.4,0.9,0.3,1.3c-1.2,1.3-2.3,2.7-3.5,4c-0.5,0.6-1.1,1.3-1.7,1.9c0.5,0.5,1,0.7,1.5,1
	c0.5,0.3,1,0.6,1.5,0.9c0,0.1,0.1,0.1,0.1,0.1c0.1,0,0.1,0.1,0.2,0.1c0,0.1,0,0.1,0.1,0.1c0.9,0.6,1.9,1.1,2.8,1.7
	c0,0.8,0,1.5,0,2.3c0,0.3,0,0.6,0.1,0.9c0.1,0.2,0.1,0.4,0.1,0.6c0,1.3,0,2.5,0,3.8c0,0.1,0,0.2,0,0.3c-0.3,1-0.1,2.1-0.2,3.1
	c0,0.1,0,0.3,0,0.4c-1.4,0.9-2.9,1.7-4.3,2.6c-0.6,0.4-1.3,0.8-1.9,1.1c0,0.3,0.2,0.4,0.3,0.6c1.6,1.8,3.1,3.6,4.7,5.4
	c0.1,0.1,0.2,0.3,0.4,0.4c0,0.2,0,0.4-0.1,0.6c-0.2,0.8-0.5,1.6-0.7,2.4c-0.5,1.9-1.1,3.7-1.9,5.5c-0.2,0.4-0.3,0.8-0.3,1.2
	c-1.4,0.3-2.8,0.7-4.2,1c-0.8,0.2-1.5,0.3-2.3,0.5c-0.2,0-0.4,0-0.5,0.1c-0.3,0.1-0.7,0.2-1,0.2c-0.3,0.1-0.3,0.2-0.2,0.5
	c0.7,1.7,1.4,3.4,2.1,5c0.3,0.7,0.5,1.3,0.8,2c-0.3,0-0.4,0.2-0.6,0.4c-0.9,1.3-1.8,2.7-2.7,4c-0.9,1.2-1.8,2.5-2.9,3.6
	c-0.2,0.2-0.3,0.4-0.3,0.7c-0.3,0-0.5,0-0.8,0c-0.1-0.1-0.2-0.1-0.4-0.1c-0.3,0-0.6,0-1,0c-1.1-0.1-2.1-0.2-3.2-0.2
	c-0.8-0.1-1.5-0.1-2.3-0.2c-0.2,0-0.3,0.1-0.3,0.3c0.1,0.9,0.1,1.7,0.2,2.6c0.1,0.9,0.2,1.8,0.2,2.7c0.1,0.7,0.1,1.4,0.2,2.1
	c-0.3,0.1-0.6,0.2-0.8,0.4c-0.6,0.5-1.2,1-1.8,1.4c-1.3,0.9-2.6,1.9-3.9,2.8c-0.9,0.6-1.8,1.2-2.7,1.8c-0.9-0.4-1.8-0.7-2.6-1.1
	c-1.2-0.5-2.4-1-3.6-1.5c-0.1-0.1-0.3-0.1-0.5-0.2c-0.1,0-0.2,0-0.2,0.1c0,0.1-0.1,0.1-0.1,0.2c-0.4,1.8-0.8,3.6-1.2,5.3
	c-0.1,0.3-0.1,0.6,0,0.9c1.5,4.4,3,8.8,4.4,13.2c2.3,6.9,4.6,13.8,6.9,20.7c1.5,4.6,3.1,9.2,4.6,13.9c0,0.1,0.1,0.3,0.1,0.4
	c0,0.1,0,0.1,0.1,0.2c0.1,0.4,0.3,0.9,0.4,1.3c0,0.1,0,0.1,0.1,0.2c0.1,0.3,0.2,0.5,0.3,0.8c0,0.1,0,0.1,0.1,0.2
	c1,3.1,2.1,6.2,3.1,9.3c0.6,1.7,1.2,3.4,1.7,5.2c0.1,0.2,0.1,0.4,0.2,0.5c-0.5,0.2-1,0.2-1.5,0.2c-11.1,0-22.2,0-33.3,0
	c-0.4,0-0.7,0-1.1,0c-0.4-1.6-0.8-3.3-1.2-4.9c-1.9-8-3.8-16.1-5.7-24.1c-1.7-7.1-3.3-14.3-5-21.4c-0.1-0.3-0.1-0.5-0.2-0.8
	c0-0.2,0.1-0.4,0.2-0.6c0.3-0.4,0.5-0.9,0.8-1.3c1.2-2.1,2.4-4.1,3.7-6.2c0.1-0.2,0.2-0.4,0.2-0.6c0-0.1,0-0.2-0.1-0.2
	c-0.2,0-0.4,0-0.6,0c-0.6,0-1.3-0.1-1.9,0c-0.5,0.1-1,0.1-1.5,0.1c-1,0-2,0-2.9,0c-0.2,0-0.4,0-0.6,0c-0.9-0.3-1.9-0.1-2.8-0.1
	c-0.2,0-0.3,0.2-0.2,0.4c0.2,0.5,0.5,0.9,0.7,1.4c0.3,0.4,0.6,0.9,0.8,1.3c0.9,1.6,1.9,3.2,2.8,4.8c0.2,0.3,0.4,0.6,0.5,0.9
	c-0.3,1.3-0.6,2.6-0.9,3.9c-1.2,5.3-2.5,10.6-3.7,15.9c-1.3,5.5-2.5,10.9-3.8,16.4c-1.3,5.4-2.5,10.8-3.8,16.2
	c0,0.1-0.1,0.1-0.1,0.2c-0.4,0-0.7,0-1.1,0c-10.9,0-21.7,0-32.6,0c-0.7,0-1.4,0.1-2.1-0.2c-0.1,0-0.2,0-0.2,0
	c0.5-1.6,1.1-3.3,1.6-4.9c0.7-2.1,1.4-4.2,2.1-6.4c1-3,2-5.9,3-8.9c0.1,0,0.1-0.1,0.1-0.2c0-0.1,0.1-0.2,0.1-0.3
	c0.1,0,0.1-0.1,0.1-0.2c0-0.1,0.1-0.2,0.1-0.3c0.1,0,0.1-0.1,0.1-0.2c0-0.1,0.1-0.2,0.1-0.3c0.1,0,0.1-0.1,0.1-0.2
	c0.4-1.2,0.8-2.3,1.1-3.5c0.7-2.2,1.4-4.3,2.2-6.5c2.4-7,4.7-14,7.1-21.1c1.5-4.4,2.9-8.8,4.4-13.2c0.1-0.2,0.1-0.3,0.2-0.5
	c0.4-0.7,0.3-1.5,0.1-2.3c-0.3-1.3-0.6-2.7-0.9-4.1c-0.1-0.2-0.1-0.5-0.3-0.7c-1.8,0.8-3.7,1.5-5.5,2.3c-0.1,0-0.2,0-0.3,0.1
	c0,0-0.1,0-0.1,0c-0.1,0-0.1,0-0.2,0.1c-0.1,0-0.2,0.1-0.3,0.1c0-0.3-0.2-0.5-0.4-0.6c-0.2-0.1-0.4-0.2-0.6-0.3
	c-1.3-0.9-2.7-1.8-4-2.7c-1.2-0.9-2.4-1.8-3.6-2.8c-0.3-0.2-0.6-0.4-0.9-0.4c0.1-1,0.2-1.9,0.2-2.9c0.1-1.3,0.2-2.5,0.3-3.8
	c0-0.2-0.1-0.3-0.2-0.3c-0.2,0-0.4,0-0.6,0c-1,0.1-2.1,0.2-3.1,0.3c-0.4,0-0.9-0.1-1.3,0.1c-0.9,0.1-1.8,0.2-2.7,0.2
	c-0.3,0-0.6,0-0.8-0.1c-0.3-0.1-0.3-0.5-0.5-0.7c-0.4-0.4-0.7-0.8-1.1-1.2c-1.3-1.8-2.6-3.6-3.8-5.4c-0.1-0.2-0.3-0.5-0.3-0.7
	c0.5-1.2,1-2.4,1.5-3.5c0.5-1.3,1.1-2.6,1.7-3.9c0.2-0.4,0.1-0.5-0.3-0.6c-2-0.4-3.9-0.9-5.9-1.3c-0.3-0.1-0.6-0.1-0.9-0.2
	c-0.3-0.8-0.6-1.7-0.9-2.5c-0.7-1.9-1.4-3.9-1.9-5.9c-0.2-0.6-0.4-1.2-0.5-1.8c0-0.2-0.2-0.3-0.4-0.4c0.9-1.1,1.8-2.1,2.8-3.2
	c0.7-0.8,1.5-1.7,2.2-2.5c-0.1-0.3-0.3-0.4-0.5-0.5c-1.8-1.1-3.5-2.1-5.3-3.2c-0.3-0.2-0.5-0.4-0.8-0.5c0-0.4,0.1-0.8-0.1-1.1
	c-0.1-0.3-0.1-0.5-0.1-0.8c0-2.3,0-4.7,0-7c0-0.2,0-0.4,0-0.6c0.1-0.4,0.1-0.9,0.1-1.3c0.5-0.3,1-0.7,1.6-1c1.5-0.9,2.9-1.8,4.4-2.6
	c0.3-0.2,0.5-0.3,0.7-0.5c-0.5-0.6-1-1.2-1.5-1.7c0-0.1-0.1-0.1-0.1-0.2c0,0,0,0,0,0c0,0-0.1-0.1-0.1-0.1c-1-1.1-2-2.3-3-3.4
	c0-0.1,0-0.2,0-0.2c0.4-1.3,0.7-2.6,1.1-3.9c0.6-2.1,1.4-4.1,2.1-6.1c0.1-0.2,0.2-0.4,0.3-0.6c1.7-0.4,3.3-0.8,5-1.2
	c0.5-0.1,1.1-0.2,1.6-0.4c0.2,0,0.3-0.1,0.5-0.2c-0.2-0.5-0.4-1-0.6-1.5c-0.9-2-1.7-4-2.6-6.1c-0.1-0.2-0.1-0.4-0.2-0.6
	c0.2,0,0.3-0.1,0.4-0.2c0.1-0.2,0.3-0.4,0.4-0.6c1-1.4,1.9-2.9,3-4.2c0.5-0.6,1-1.3,1.5-1.9c0.5-0.7,0.5-0.7,1.4-0.7
	c0.1,0,0.1,0,0.2,0c1.2,0.1,2.3,0.2,3.5,0.3c1.3,0.1,2.7,0.2,4,0.4c0.3,0,0.4-0.1,0.3-0.3c-0.2-1.9-0.4-3.8-0.5-5.8
	c-0.1-0.9-0.1-1.8-0.2-2.7c0.3-0.1,0.6-0.2,0.8-0.4c0.6-0.5,1.2-1,1.8-1.4c1.6-1.2,3.2-2.4,5-3.4c0.2-0.1,0.5-0.3,0.6-0.5
	c0.1,0,0.1,0,0.2,0.1c0.1,0.1,0.2,0.1,0.3,0.1c1.4,0.6,2.7,1.1,4.1,1.7c1,0.4,2,0.9,3.1,1.3c0.4,0.2,0.4,0.1,0.5-0.2
	c0.2-0.8,0.4-1.6,0.6-2.5c0.4-1.7,0.8-3.5,1.2-5.2c0-0.1,0.1-0.2,0.1-0.3c0.2,0,0.4,0,0.6-0.1c0.5-0.2,0.9-0.3,1.4-0.5
	c2-0.7,3.9-1.4,5.9-1.9c0.6-0.2,1.2-0.2,1.8-0.6c1,0.9,2,1.7,3,2.6c1,0.9,2,1.8,3,2.6c0.1,0.1,0.2,0.2,0.3,0.3c0.1,0,0.2,0,0.2,0
	c0.2-0.2,0.3-0.5,0.4-0.7c1.1-1.9,2.3-3.8,3.4-5.7c0.1-0.2,0.3-0.5,0.4-0.7c0,0,0.1-0.1,0.1-0.1C129.4,10.9,129.5,10.9,129.5,10.8z
	 M126.7,76.9c-0.1,1.7,0.4,3.2,1.3,4.5c0.3,0.5,0.8,0.8,1.2,1.3c0.5,0.6,1.3,1,2,1.4c1.6,0.7,3.2,0.9,4.9,0.5c1.5-0.3,2.7-1,3.8-2.1
	c0.8-0.8,1.3-1.8,1.7-2.8c0.3-0.8,0.3-1.6,0.5-2.4c0.1-0.5-0.1-0.9-0.1-1.4c-0.1-1.2-0.6-2.2-1.2-3.2c-0.3-0.5-0.6-0.9-1-1.3
	c-0.7-0.7-1.6-1.2-2.5-1.6c-0.9-0.4-1.9-0.6-2.9-0.6c-0.5,0-0.9,0.1-1.4,0.2c-0.8,0.1-1.5,0.4-2.2,0.8c-0.3,0.2-0.7,0.4-1,0.7
	c-0.8,0.6-1.4,1.2-1.9,2.1c-0.2,0.4-0.4,0.8-0.6,1.2c-0.1,0.3-0.2,0.6-0.3,0.9C126.8,75.7,126.7,76.4,126.7,76.9z M110.9,150.8
	c1-0.9,1.9-1.7,2.9-2.5c0.6-0.6,1.2-1.2,1.9-1.7c0.6-0.5,1.1-1.1,1.8-1.6c0.4-0.3,0.8-0.7,1.1-1.1c0.1-0.2,0.1-0.3-0.1-0.4
	c-0.1,0-0.2-0.1-0.3-0.1c-0.8-0.2-1.6-0.4-2.4-0.6c-2-0.6-4-1.3-6-2c-0.3-0.1-0.6-0.4-0.9-0.2c-0.2,0.2-0.1,0.6-0.1,0.9
	c0,0,0,0.1,0,0.1c0.1,0.6,0.3,1.1,0.4,1.7c0.4,1.6,0.7,3.2,1.1,4.9C110.4,149,110.7,149.9,110.9,150.8z M159.9,141.7
	c0-0.5-0.1-0.5-0.4-0.4c-0.6,0.2-1.2,0.5-1.8,0.7c-2.2,0.7-4.3,1.5-6.5,2c-0.1,0-0.2,0.1-0.2,0.1c-0.2,0.1-0.3,0.3-0.1,0.4
	c0.4,0.4,0.8,0.8,1.2,1.1c0.7,0.7,1.5,1.3,2.2,1.9c0.7,0.6,1.3,1.2,2,1.8c0.5,0.4,0.9,0.8,1.3,1.2c0.2,0.2,0.4,0.1,0.5-0.1
	c0.2-0.6,0.3-1.2,0.4-1.8c0.4-1.9,0.9-3.9,1.3-5.8C159.8,142.4,159.9,142.1,159.9,141.7z"/>
<path fill="#EC1F38" d="M85.5,206.3c0.1,0,0.2,0,0.2,0c0.7,0.2,1.4,0.2,2.1,0.2c10.9,0,21.7,0,32.6,0c0.4,0,0.7,0,1.1,0
	c0,0.7-0.2,1.3-0.4,1.9c-1.4,6-2.8,12-4.2,18.1c-0.8,3.6-1.7,7.2-2.5,10.8c-0.1,0.6-0.3,1.2-0.4,1.8c0,0.2-0.1,0.3-0.2,0.4
	c0,0-0.1,0-0.1,0c-0.2-0.4-0.5-0.8-0.7-1.2c-1.5-2.9-3-5.8-4.5-8.7c-2-3.8-3.9-7.5-5.9-11.3c-0.4-0.8-0.8-1.6-1.3-2.4
	c-0.1-0.2-0.2-0.2-0.4-0.1c-1.1,0.7-2.2,1.3-3.3,2c-4.6,2.8-9.3,5.6-13.9,8.5c-1.8,1.1-3.6,2.2-5.4,3.3c-0.2,0.1-0.4,0.2-0.6,0.3
	c-0.1-0.1-0.1-0.3-0.1-0.4c0.9-2.7,1.8-5.4,2.7-8.1c0.6-1.9,1.3-3.9,1.9-5.8c1-2.9,2-5.8,2.9-8.8C85.4,206.6,85.5,206.4,85.5,206.3z
	"/>
<path fill="#EC1F38" d="M90.8,128.6c0.4,0,0.7,0.2,0.9,0.4c1.1,1,2.3,1.9,3.6,2.8c1.3,0.9,2.6,1.8,4,2.7c0.2,0.1,0.4,0.2,0.6,0.3
	c0.2,0.1,0.4,0.3,0.4,0.6c-0.2,0.2-0.5,0.3-0.8,0.4c-3,1.3-6.1,2.6-9.1,3.9c-0.2,0.1-0.3,0.2-0.6,0.2c-0.1-0.5,0-1,0-1.4
	c0.1-1,0.2-1.9,0.3-2.9c0.1-1.6,0.3-3.1,0.4-4.7C90.6,130.1,90.6,129.3,90.8,128.6z"/>
<path fill="#EC1F38" d="M69.2,93.9c0.2,0.1,0.3,0.2,0.4,0.4c0.1,0.6,0.3,1.2,0.5,1.8c0.5,2,1.2,4,1.9,5.9c0.3,0.8,0.6,1.7,0.9,2.5
	c-1-0.1-2-0.4-3-0.6c-2.4-0.5-4.8-1.1-7.2-1.6c-0.2,0-0.4-0.1-0.5-0.2c0-0.2,0.1-0.3,0.2-0.4c2.2-2.5,4.4-5.1,6.6-7.6
	C69.1,94,69.1,94,69.2,93.9z"/>
<path fill="#EC1F38" d="M73.1,52.6c-0.1,0.2-0.3,0.4-0.3,0.6c-0.8,2-1.5,4.1-2.1,6.1c-0.4,1.3-0.7,2.6-1.1,3.9c0,0.1,0,0.2,0,0.2
	c-0.5-0.4-0.9-1-1.4-1.5c-1.5-1.7-3-3.5-4.6-5.2c-0.4-0.5-0.8-0.9-1.2-1.4c0-0.1-0.1-0.1-0.1-0.2c0.4-0.2,0.8-0.3,1.2-0.3
	c3.1-0.7,6.3-1.5,9.4-2.2C72.8,52.6,73,52.6,73.1,52.6z"/>
<path fill="#EC1F38" d="M133.9,153.9c0-0.4-0.3-0.6-0.5-0.9c-0.9-1.6-1.9-3.2-2.8-4.8c-0.2-0.5-0.5-0.9-0.8-1.3
	c-0.3-0.4-0.5-0.9-0.7-1.4c-0.1-0.2,0-0.4,0.2-0.4c0.9,0,1.9-0.1,2.8,0.1c0.2,0.1,0.4,0,0.6,0c1,0,2,0,2.9,0c0.5,0,1,0,1.5-0.1
	c0.6-0.1,1.2,0,1.9,0c0.2,0,0.4,0,0.6,0c0.1,0,0.2,0.1,0.1,0.2c-0.1,0.2-0.1,0.4-0.2,0.6c-1.2,2.1-2.4,4.1-3.7,6.2
	c-0.3,0.4-0.5,0.9-0.8,1.3c-0.1,0.2-0.2,0.4-0.2,0.6c-0.2,0-0.3,0.2-0.5,0.3C134.1,154.4,134.2,154,133.9,153.9z"/>
<path fill="#EC1F38" d="M67.5,73.1c0,0.4,0.1,0.9-0.1,1.3c-0.1,0.2,0,0.4,0,0.6c0,2.3,0,4.7,0,7c0,0.3,0,0.5,0.1,0.8
	c0.1,0.4,0.1,0.8,0.1,1.1c-0.4-0.1-0.8-0.4-1.1-0.6c-2.5-1.5-5.1-3-7.6-4.6c-0.1-0.1-0.2-0.1-0.3-0.2c0-0.2,0.1-0.2,0.2-0.3
	c2.8-1.7,5.5-3.3,8.3-5C67.1,73.3,67.3,73.1,67.5,73.1z"/>
<path fill="#EC1F38" d="M118.4,12.8c-0.5,0.3-1.2,0.4-1.8,0.6c-2,0.5-4,1.2-5.9,1.9c-0.5,0.2-0.9,0.4-1.4,0.5
	c-0.2,0.1-0.4,0-0.6,0.1c0-0.6,0.2-1.2,0.4-1.8c0.5-2.4,1.1-4.7,1.6-7.1c0-0.1,0.1-0.3,0.1-0.4c0.1-0.2,0.2-0.2,0.3-0.1
	c0.2,0.2,0.4,0.3,0.6,0.5c2.1,1.9,4.3,3.7,6.4,5.6C118.3,12.6,118.3,12.7,118.4,12.8z"/>
<path fill="#EC1F38" d="M98.8,20.9c-0.2,0.2-0.4,0.4-0.6,0.5c-1.7,1-3.3,2.2-5,3.4c-0.6,0.4-1.2,0.9-1.8,1.4
	c-0.2,0.2-0.5,0.3-0.8,0.4c-0.2-1.1-0.2-2.2-0.3-3.2c-0.2-1.5-0.3-3-0.4-4.5c0-0.5-0.1-1-0.1-1.5c0-0.2,0.1-0.3,0.3-0.2
	c0.1,0,0.3,0.1,0.4,0.1c2.7,1.1,5.3,2.3,7.9,3.4C98.5,20.8,98.7,20.8,98.8,20.9z"/>
<path fill="#EC1F38" d="M76.8,114c0,0.3,0.2,0.5,0.3,0.7c1.2,1.9,2.5,3.7,3.8,5.4c0.3,0.4,0.7,0.8,1.1,1.2c0.2,0.2,0.2,0.6,0.5,0.7
	c0.3,0.1,0.5,0,0.8,0.1c-0.1,0-0.2,0.1-0.3,0.1c-0.6,0.1-1.3,0.1-1.9,0.2c-1.7,0.2-3.5,0.3-5.2,0.5c-0.8,0.1-1.6,0.1-2.4,0.2
	c-0.2,0-0.4,0.1-0.6-0.1c0.1-0.3,0.2-0.6,0.3-0.9c1.1-2.6,2.2-5.2,3.3-7.8C76.7,114.3,76.7,114.1,76.8,114z"/>
<path fill="#EC1F38" d="M83.5,34.8c-0.1,0-0.1,0-0.2,0c-0.9,0-0.9,0-1.4,0.7c-0.5,0.6-1,1.3-1.5,1.9c-1.1,1.4-2,2.8-3,4.2
	c-0.1,0.2-0.3,0.4-0.4,0.6c-0.1,0.1-0.3,0.2-0.4,0.2c-0.1-0.1-0.1-0.2-0.2-0.3c-1.1-2.6-2.3-5.3-3.4-8C73,34.2,73,34.1,73,33.9
	c0.4,0,0.8,0,1.3,0c1,0.1,1.9,0.2,2.9,0.3c0.8,0.1,1.7,0.2,2.5,0.2c0.9,0.1,1.9,0.1,2.8,0.2C82.9,34.7,83.2,34.7,83.5,34.8z"/>
<path fill="#378BCA" d="M86.2,122c0.4-0.3,0.9-0.1,1.3-0.1C87,122,86.6,122.1,86.2,122z"/>
<path fill="#378BCA" d="M99.2,21.1c-0.1,0-0.2,0-0.3-0.1C99.1,21,99.2,21,99.2,21.1z"/>
<path fill="#378BCA" d="M100.9,135.2c0.1-0.1,0.2-0.1,0.3-0.1C101.1,135.2,101,135.3,100.9,135.2z"/>
<path fill="#378BCA" d="M92.3,186c0,0.1,0,0.1-0.1,0.2C92.2,186.1,92.3,186,92.3,186z"/>
<path fill="#378BCA" d="M92.5,185.5c0,0.1,0,0.1-0.1,0.2C92.4,185.6,92.4,185.5,92.5,185.5z"/>
<path fill="#378BCA" d="M92.7,185c0,0.1,0,0.1-0.1,0.2C92.6,185.1,92.6,185,92.7,185z"/>
<path fill="#378BCA" d="M92.8,184.5c0,0.1,0,0.1-0.1,0.2C92.7,184.6,92.8,184.6,92.8,184.5z"/>
<path fill="#378BCA" d="M100.5,135.4c0-0.1,0.1-0.1,0.2-0.1C100.7,135.4,100.6,135.4,100.5,135.4z"/>
<path fill="#378BCA" d="M72.5,66.9c0,0,0.1,0.1,0.1,0.1C72.5,67,72.5,67,72.5,66.9z"/>
<path fill="#378BCA" d="M72.6,67.1c0,0.1,0.1,0.1,0.1,0.2C72.7,67.2,72.6,67.2,72.6,67.1z"/>
<path fill="#378BCA" d="M129.4,11c0,0-0.1,0.1-0.1,0.1C129.3,11,129.3,11,129.4,11z"/>
<path fill="#EC1F38" d="M168.9,135.6c0.9-0.6,1.8-1.2,2.7-1.8c1.3-0.9,2.6-1.9,3.9-2.8c0.6-0.4,1.2-0.9,1.8-1.4
	c0.2-0.2,0.5-0.4,0.8-0.4c0.2,1.1,0.2,2.2,0.3,3.2c0.2,1.5,0.3,3,0.4,4.5c0.1,0.8,0.1,1.7,0.2,2.5c0,0.1,0,0.3,0,0.4
	c-0.4,0-0.6-0.2-0.9-0.3c-2.9-1.2-5.8-2.4-8.6-3.7C169.3,135.9,169,135.8,168.9,135.6z"/>
<path fill="#EC1F38" d="M185.3,122.2c0-0.3,0.1-0.5,0.3-0.7c1-1.1,1.9-2.4,2.9-3.6c1-1.3,1.8-2.7,2.7-4c0.1-0.2,0.3-0.4,0.6-0.4
	c0.2,0.2,0.3,0.5,0.4,0.7c1.1,2.6,2.2,5.2,3.3,7.9c0.1,0.3,0.4,0.6,0.3,1c-0.4,0.1-0.7,0-1.1,0c-1.7-0.1-3.4-0.3-5.1-0.5
	c-1.2-0.1-2.5-0.2-3.7-0.3C185.6,122.3,185.5,122.3,185.3,122.2z"/>
<path fill="#EC1F38" d="M197.1,104.2c0-0.4,0.1-0.8,0.3-1.2c0.7-1.8,1.4-3.7,1.9-5.5c0.2-0.8,0.5-1.6,0.7-2.4
	c0.1-0.2,0.1-0.4,0.1-0.6c0.5,0.4,0.9,1,1.4,1.5c1.5,1.7,2.9,3.4,4.4,5.1c0.3,0.3,0.5,0.6,0.7,0.9c-0.1,0.2-0.3,0.2-0.5,0.3
	c-2.9,0.7-5.8,1.3-8.8,2C197.2,104.2,197.1,104.2,197.1,104.2z"/>
<path fill="#378BCA" d="M183.2,122c0.3,0,0.6,0,1,0c0.1,0,0.3,0,0.4,0.1C184.1,122.2,183.6,122.2,183.2,122z"/>
<path fill="#378BCA" d="M190,105.8c0.1-0.2,0.3-0.2,0.5-0.1C190.4,105.8,190.2,105.9,190,105.8z"/>
<path fill="#378BCA" d="M177.7,190.1c-0.1,0-0.1-0.1-0.1-0.2C177.7,190,177.8,190,177.7,190.1z"/>
<path fill="#378BCA" d="M177.4,189.1c-0.1,0-0.1-0.1-0.1-0.2C177.4,189,177.4,189,177.4,189.1z"/>
<path fill="#378BCA" d="M176.9,187.6c-0.1,0-0.1-0.1-0.1-0.2C176.9,187.5,176.9,187.6,176.9,187.6z"/>
<path fill="#EC1F38" d="M160.4,17.5c-0.6,0.1-1.1-0.2-1.6-0.4c-1.9-0.7-3.8-1.4-5.8-2c-1.3-0.4-2.6-0.7-3.9-1.1c-0.1,0-0.2,0-0.2,0
	c0.6-0.7,1.3-1.2,2-1.8c1.7-1.5,3.4-3,5.1-4.5c0.5-0.4,1-0.9,1.5-1.3c0.1-0.1,0.2-0.2,0.3-0.1c0.2,0.3,0.2,0.7,0.3,1.1
	c0.7,3.2,1.5,6.4,2.2,9.6C160.4,17.2,160.4,17.4,160.4,17.5z"/>
<path fill="#EC1F38" d="M199.7,63c0-0.5-0.2-0.9-0.3-1.3c-0.4-1.5-0.8-3-1.3-4.4c-0.4-1.2-0.9-2.4-1.4-3.7c-0.1-0.3-0.2-0.6-0.3-0.8
	c0.2,0,0.4,0,0.6,0.1c3,0.7,6,1.4,9,2.1c0.2,0,0.4,0.1,0.6,0.2c0,0.3-0.2,0.5-0.4,0.7c-0.7,0.9-1.5,1.7-2.2,2.6
	c-1.3,1.4-2.5,2.9-3.8,4.3C200,62.8,199.9,62.9,199.7,63z"/>
<path fill="#EC1F38" d="M178.2,26.8c-0.1,0-0.3,0-0.4-0.1c-1-0.9-2-1.6-3.1-2.4c-0.5-0.4-1-0.7-1.5-1.1c-0.8-0.6-1.6-1.1-2.4-1.6
	c-0.3-0.2-0.5-0.4-0.7-0.7c0.7-0.4,1.4-0.7,2.1-1c2.1-0.9,4.2-1.8,6.2-2.6c0.2-0.1,0.3-0.1,0.5-0.2c0.1,0.2,0.1,0.4,0.1,0.6
	c-0.1,0.8-0.1,1.6-0.2,2.4c-0.1,0.9-0.2,1.7-0.2,2.6c-0.1,1.3-0.2,2.7-0.3,4C178.2,26.7,178.2,26.8,178.2,26.8z"/>
<path fill="#EC1F38" d="M192,42.9c0-0.2-0.1-0.3-0.2-0.4c-1.2-1.8-2.4-3.6-3.7-5.3c-0.5-0.6-1-1.2-1.5-1.8c-0.3-0.3-0.5-0.5-1-0.4
	c-0.1,0-0.2,0-0.2,0c0.1,0,0.2-0.1,0.3-0.1c1.4-0.1,2.8-0.2,4.2-0.4c1.5-0.1,2.9-0.3,4.4-0.4c0.4,0,0.8-0.1,1.2-0.1
	c0.1,0,0.2,0.1,0.2,0.2c0,0.1-0.1,0.3-0.1,0.4c-1.2,2.7-2.3,5.4-3.5,8.2C192.1,42.8,192.1,42.8,192,42.9z"/>
<path fill="#378BCA" d="M182.8,35c-0.1,0.1-0.2,0.1-0.4,0.1c-0.4,0-0.8,0-1.2,0C181.8,35,182.3,35,182.8,35z"/>
<path fill="#378BCA" d="M184.6,34.9c-0.1,0.1-0.2,0.1-0.4,0.1c-0.4,0-0.8,0-1.2,0C183.6,34.9,184.1,34.8,184.6,34.9z"/>
<path fill="#378BCA" d="M142.3,15.7c-0.1,0-0.1-0.1-0.1-0.2C142.2,15.6,142.3,15.6,142.3,15.7z"/>
<path fill="#378BCA" d="M169.9,21c0,0.1-0.1,0.1-0.2,0.1C169.8,21,169.8,20.9,169.9,21z"/>
<path fill="#378BCA" d="M142.1,15.4c-0.1,0-0.1-0.1-0.1-0.1C142,15.2,142.1,15.3,142.1,15.4z"/>
<path fill="#378BCA" d="M191.9,43.2c0-0.1,0-0.2,0.1-0.2C192,43.1,191.9,43.2,191.9,43.2z"/>
<path fill="#378BCA" d="M197.7,71c-0.1,0-0.1,0-0.1-0.1C197.7,70.9,197.7,70.9,197.7,71z"/>
<path fill="#378BCA" d="M198,71.2c-0.1,0-0.1,0-0.1-0.1C198,71.1,198,71.1,198,71.2z"/>
<path fill="#EC1F38" d="M126.7,76.9c-0.1-0.6,0-1.2,0.2-1.9c0.1-0.3,0.2-0.6,0.3-0.9c0.2-0.4,0.4-0.8,0.6-1.2
	c0.5-0.9,1.1-1.5,1.9-2.1c0.3-0.2,0.7-0.5,1-0.7c0.7-0.4,1.4-0.6,2.2-0.8c0.5-0.1,0.9-0.2,1.4-0.2c1,0.1,2,0.2,2.9,0.6
	c0.9,0.4,1.8,0.9,2.5,1.6c0.4,0.4,0.7,0.8,1,1.3c0.6,1,1.1,2,1.2,3.2c0,0.5,0.2,0.9,0.1,1.4c-0.1,0.8-0.2,1.6-0.5,2.4
	c-0.4,1.1-0.9,2-1.7,2.8c-1,1.1-2.3,1.8-3.8,2.1c-1.7,0.4-3.4,0.3-4.9-0.5c-0.7-0.3-1.4-0.8-2-1.4c-0.4-0.4-0.8-0.8-1.2-1.3
	C127.1,80.1,126.6,78.6,126.7,76.9z"/>
<path fill="#EC1F38" d="M110.9,150.8c-0.2-1-0.5-1.8-0.7-2.6c-0.4-1.6-0.7-3.2-1.1-4.9c-0.1-0.6-0.3-1.1-0.4-1.7c0,0,0-0.1,0-0.1
	c0-0.3-0.2-0.7,0.1-0.9c0.3-0.3,0.6,0,0.9,0.2c2,0.8,4,1.5,6,2c0.8,0.2,1.6,0.5,2.4,0.6c0.1,0,0.2,0.1,0.3,0.1
	c0.2,0.1,0.2,0.2,0.1,0.4c-0.4,0.4-0.7,0.8-1.1,1.1c-0.6,0.5-1.2,1.1-1.8,1.6c-0.7,0.5-1.3,1.1-1.9,1.7
	C112.9,149.1,111.9,149.9,110.9,150.8z"/>
<path fill="#EC1F38" d="M159.9,141.7c-0.1,0.3-0.1,0.7-0.2,1.1c-0.4,1.9-0.9,3.9-1.3,5.8c-0.1,0.6-0.3,1.2-0.4,1.8
	c-0.1,0.3-0.3,0.3-0.5,0.1c-0.5-0.4-0.9-0.8-1.3-1.2c-0.7-0.6-1.3-1.2-2-1.8c-0.7-0.6-1.5-1.3-2.2-1.9c-0.4-0.4-0.8-0.7-1.2-1.1
	c-0.2-0.2-0.1-0.3,0.1-0.4c0.1,0,0.1-0.1,0.2-0.1c2.2-0.5,4.4-1.3,6.5-2c0.6-0.2,1.2-0.4,1.8-0.7C159.9,141.2,160,141.3,159.9,141.7
	z"/>
</svg>
