<?xml version="1.0" encoding="utf-8"?>
<!-- Generator: Adobe Illustrator 18.1.0, SVG Export Plug-In . SVG Version: 6.00 Build 0)  -->
<svg version="1.1" id="Layer_1" xmlns="http://www.w3.org/2000/svg" xmlns:xlink="http://www.w3.org/1999/xlink" x="0px" y="0px"
	 viewBox="0 0 261 241" enable-background="new 0 0 261 241" xml:space="preserve">
<g>
	<g id="PL_x5F_Tag_1_">
		<path fill="#939598" d="M105.1,21.8c3.8,0.1,7.4,1.4,10,3.9l126,122l0.1,0.1l0.1,0.1c1.8,1.7,2.8,3.9,2.8,6.4c0,2.5-1,4.7-2.8,6.3
			l-64.5,59.7c-1.8,1.7-4.3,2.6-6.9,2.6c-2.7,0-5.1-0.9-6.9-2.6l-0.1-0.1l-0.1-0.1L30.6,101.8c-2.7-2.6-4.1-5.9-4.1-9.4V30.8
			c0-5,4.4-9,9.8-9H105.1 M105.2,12.6H36.3c-10.9,0-19.7,8.1-19.7,18.2v61.7c0,6.2,2.7,11.7,7,15.8l132.3,118.3
			c3.8,3.5,8.8,5.3,13.9,5.3c5,0,10.1-1.7,13.9-5.3l64.6-59.6c3.8-3.5,5.7-8.2,5.7-12.9s-1.9-9.4-5.7-12.9L122.2,19.2
			C117.5,14.9,111.4,12.7,105.2,12.6L105.2,12.6z"/>
	</g>
	<path fill="#939598" d="M76,49.2c10.9,0,19.8,8.2,19.8,18.3S86.9,85.7,76,85.7s-19.8-8.2-19.8-18.3S65.1,49.2,76,49.2 M76,40
		c-16.4,0-29.7,12.3-29.7,27.4S59.6,94.9,76,94.9s29.7-12.3,29.7-27.4S92.4,40,76,40L76,40z"/>
</g>
</svg>
